<svg class="ldi-tejnqr" width="200px"  height="200px"  xmlns="http://www.w3.org/2000/svg" xmlns:xlink="http://www.w3.org/1999/xlink" viewBox="0 0 100 100" preserveAspectRatio="xMidYMid" style="background: none;"><!--?xml version="1.0" encoding="utf-8"?--><!--Generator: Adobe Illustrator 21.0.0, SVG Export Plug-In . SVG Version: 6.00 Build 0)--><svg version="1.1" id="圖層_1" xmlns="http://www.w3.org/2000/svg" xmlns:xlink="http://www.w3.org/1999/xlink" x="0px" y="0px" viewBox="0 0 100 100" style="transform-origin: 50px 50px 0px;" xml:space="preserve"><g style="transform-origin: 50px 50px 0px;"><g style="transform-origin: 50px 50px 0px; transform: scale(0.6);"><g style="transform-origin: 50px 50px 0px; animation-duration: 1s; animation-delay: -1s; animation-direction: normal;" class="ld ld-bounce-px"><g><style type="text/css" class="" style="transform-origin: 50px 50px 0px; animation-duration: 1s; animation-delay: -1s; animation-direction: normal;">.st0{fill:#662D91;} .st1{fill:#A0C8D7;} .st2{fill:#ABBD81;} .st3{fill:#F47E60;} .st4{fill:#FFDC6C;} .st5{fill:#E15B64;} .st6{fill:#F2F2F2;} .st7{fill:#FCEE21;} .st8{fill:#EEF4DC;} .st9{fill:#F5E6C8;} .st10{fill:#C33737;} .st11{fill:#333333;} .st12{fill:#666666;} .st13{fill:#CCCCCC;} .st14{fill:#FFC28A;} .st15{fill:#4D4D4D;} .st16{fill:#999999;} .st17{fill:#29ABE2;} .st18{fill:#166496;} .st19{fill:#0071BC;} .st20{fill:#F7931E;} .st21{fill:#3E4D8A;} .st22{fill:#ED1E79;} .st23{fill:#9E005D;} .st24{fill:#D4145A;} .st25{fill:none;} .st26{fill:#ED1C24;} .st27{fill:#F15A24;} .st28{fill:#FBB03B;} .st29{fill:#C7B299;} .st30{fill:none;stroke:#FFFFFF;stroke-width:4;stroke-linecap:round;stroke-miterlimit:10;} .st31{fill:#C69C6D;} .st32{fill:#808080;} .st33{fill:#39B54A;} .st34{fill:#FFFFFF;} .st35{fill:#F6FF3F;} .st36{fill:#FF0000;} .st37{fill:#603813;} .st38{fill:#42210B;} .st39{fill:#1A1A1A;} .st40{fill:#FFD6B0;} .st41{fill:#C28851;} .st42{fill:#FFC28A;stroke:#FFFFFF;stroke-width:2;stroke-miterlimit:10;} .st43{fill:#009245;} .st44{fill:none;stroke:#333333;stroke-linecap:round;stroke-miterlimit:10;} .st45{fill:#E0E0E0;} .st46{fill:#C59B6D;} .st47{fill:#3399CC;} .st48{fill:#9F69B8;} .st49{fill:#EFBF4E;} .st50{fill:#353035;} .st51{fill:#77A4BD;} .st52{fill:#131F25;} .st53{fill:#494B32;} .st54{fill:none;stroke:#754C24;stroke-miterlimit:10;} .st55{fill:#754C24;} .st56{fill:#B2A44F;} .st57{fill:#48462D;} .st58{opacity:0.6;fill:#F73D7E;} .st59{opacity:0.8;fill:#F73D7E;} .st60{fill:#F73D7E;} .st61{opacity:0.59;fill:#3399CC;} .st62{fill:#DBDBDB;} .st63{fill:#3FAB4B;} .st64{fill:#E3A735;} .st65{fill:#E48E11;} .st66{fill:#A67C52;} .st67{fill:#8C6239;} .st68{fill:#666666;stroke:#F2F2F2;stroke-width:1.5;stroke-miterlimit:10;} .st69{fill:none;stroke:#333333;stroke-width:1.5;stroke-miterlimit:10;} .st70{fill:#62A562;} .st71{opacity:0.76;fill:#2E6045;} .st72{fill:#2E6045;} .st73{opacity:0.8;fill:#2E6045;} .st74{fill:#F8B26A;stroke:#231815;stroke-miterlimit:10;} .st75{fill:#F1F5DB;} .st76{fill:#FEAE01;} .st77{fill:#FF9400;} .st78{fill:none;stroke:#B3B3B3;stroke-width:3;stroke-miterlimit:10;} .st79{fill:#B3B3B3;} .st80{fill:none;stroke:#000000;stroke-width:1.5;stroke-miterlimit:10;} .st81{fill:none;stroke:#754C24;stroke-width:3;stroke-miterlimit:10;} .st82{fill:#C5C2BA;} .st83{fill:#E62B0F;} .st84{fill:#F2E336;} .st85{fill:#96AB5F;} .st86{fill:#C0996D;} .st87{fill:#573E31;} .st88{fill:none;stroke:#754C24;stroke-width:2;stroke-linecap:round;stroke-miterlimit:10;} .st89{fill:#534741;} .st90{fill:#F8B26A;} .st91{fill:#F8B26A;stroke:#F2F2F2;stroke-width:0.4104;stroke-miterlimit:10;} .st92{fill:none;stroke:#FFFFFF;stroke-width:1.8418;stroke-miterlimit:10;} .st93{fill:#F73D7E;stroke:#FFFFFF;stroke-width:1.5;stroke-miterlimit:10;} .st94{fill:#F8B26A;stroke:#FFFFFF;stroke-width:2.2377;stroke-miterlimit:10;} .st95{fill:#C33737;stroke:#FFFFFF;stroke-width:1.1035;stroke-miterlimit:10;} .st96{fill:none;stroke:#333333;stroke-width:3.876;stroke-miterlimit:10;} .st97{fill:#31F294;} .st98{fill:#66503A;} .st99{fill:#E15C65;}</style><g class="" style="transform-origin: 50px 50px 0px; animation-duration: 1s; animation-delay: -0.933333s; animation-direction: normal;"><path class="st10" d="M63.12,45.874L63.12,45.874c-0.484-0.246-0.977-0.481-1.481-0.7c-0.244-0.107-0.496-0.202-0.745-0.302 c-0.169-0.068-0.335-0.14-0.506-0.205l0,0c-3.174-1.206-6.685-1.89-10.389-1.89s-7.215,0.683-10.389,1.89l0,0 c-0.171,0.065-0.337,0.137-0.506,0.205c-0.249,0.1-0.5,0.196-0.745,0.302c-0.504,0.22-0.997,0.454-1.481,0.7l0,0 C29.468,49.652,24.5,56.518,24.5,64.38v14.467c0,2.984,2.855,5.403,6.378,5.403h7.247h3.483h16.784h3.483h7.247 c3.522,0,6.378-2.419,6.378-5.403V64.38C75.5,56.518,70.532,49.652,63.12,45.874z" fill="rgb(195, 55, 55)" style="fill: rgb(195, 55, 55);"></path></g><g class="" style="transform-origin: 50px 50px 0px; animation-duration: 1s; animation-delay: -0.866667s; animation-direction: normal;"><path class="st51" d="M61.577,42.874L61.577,42.874c-0.427-0.246-0.862-0.481-1.306-0.7c-0.216-0.107-0.438-0.202-0.657-0.302 c-0.149-0.068-0.295-0.14-0.446-0.205l0,0c-2.801-1.206-5.898-1.89-9.167-1.89s-6.366,0.683-9.167,1.89l0,0 c-0.151,0.065-0.297,0.137-0.446,0.205c-0.219,0.1-0.441,0.196-0.657,0.302c-0.444,0.22-0.88,0.454-1.306,0.7l0,0 C31.883,46.652,27.5,53.518,27.5,61.38v14.467c0,2.984,2.52,5.403,5.628,5.403h6.395h3.073h14.809h3.073h6.395 c3.108,0,5.628-2.419,5.628-5.403V61.38C72.5,53.518,68.117,46.652,61.577,42.874z" fill="rgb(119, 164, 189)" style="fill: rgb(119, 164, 189);"></path></g><g class="" style="transform-origin: 50px 50px 0px; animation-duration: 1s; animation-delay: -0.8s; animation-direction: normal;"><path class="st9" d="M50,44.263c5.96,0,10.937-4.676,12.188-10.928c-3.255,1.976-7.513,3.183-12.188,3.183 s-8.933-1.208-12.188-3.183C39.063,39.588,44.04,44.263,50,44.263z" fill="rgb(245, 230, 200)" style="fill: rgb(245, 230, 200);"></path></g><g class="" style="transform-origin: 50px 50px 0px; animation-duration: 1s; animation-delay: -0.733333s; animation-direction: normal;"><path class="st51" d="M50,15.75c-8.016,0-14.513,6.498-14.513,14.513c0,0.49,0.026,0.973,0.073,1.45 c0.728,7.335,6.914,13.063,14.44,13.063s13.712-5.729,14.44-13.063c0.047-0.477,0.073-0.961,0.073-1.45 C64.513,22.248,58.016,15.75,50,15.75z M50,44.263c-5.96,0-10.937-4.676-12.188-10.928c3.255,1.976,7.513,3.183,12.188,3.183 s8.933-1.208,12.188-3.183C60.937,39.588,55.96,44.263,50,44.263z" fill="rgb(119, 164, 189)" style="fill: rgb(119, 164, 189);"></path></g><g class="" style="transform-origin: 50px 50px 0px; animation-duration: 1s; animation-delay: -0.666667s; animation-direction: normal;"><path class="st34" d="M49.218,64.468l-7.513-6.345c-0.46-0.388-0.565-1.056-0.247-1.566l2.564-4.114 c0.221-0.355,0.61-0.571,1.028-0.571h9.898c0.418,0,0.807,0.216,1.028,0.571l2.564,4.114c0.318,0.511,0.213,1.178-0.247,1.566 l-7.513,6.345C50.33,64.849,49.67,64.849,49.218,64.468z" fill="rgb(255, 255, 255)" style="fill: rgb(255, 255, 255);"></path></g><metadata xmlns:d="https://loading.io/stock/" class="" style="transform-origin: 50px 50px 0px; animation-duration: 1s; animation-delay: -0.6s; animation-direction: normal;">
<d:name class="" style="transform-origin: 50px 50px 0px; animation-duration: 1s; animation-delay: -0.533333s; animation-direction: normal;">super hero</d:name>
<d:tags class="" style="transform-origin: 50px 50px 0px; animation-duration: 1s; animation-delay: -0.466667s; animation-direction: normal;">superman,super hero,people</d:tags>
<d:license class="" style="transform-origin: 50px 50px 0px; animation-duration: 1s; animation-delay: -0.4s; animation-direction: normal;">rf</d:license>
<d:slug class="" style="transform-origin: 50px 50px 0px; animation-duration: 1s; animation-delay: -0.333333s; animation-direction: normal;">tejnqr</d:slug>
</metadata></g></g></g></g><style type="text/css" class="" style="transform-origin: 50px 50px 0px; animation-duration: 1s; animation-delay: -0.266667s; animation-direction: normal;">path,ellipse,circle,rect,polygon,polyline,line { stroke-width: 0; }@keyframes ld-bounce-px {
  0%, 90% {
    animation-timing-function: linear;
  }
  10% {
    animation-timing-function: cubic-bezier(0, 0.4, 0.6, 1);
  }
  50% {
    animation-timing-function: cubic-bezier(0.4, 0, 1, 0.6);
  }
  0% {
    -webkit-transform: translate(0, 30px) scaleY(0.5);
    transform: translate(0, 30px) scaleY(0.5);
  }
  10% {
    -webkit-transform: translate(0, 5px) scaleY(1.1);
    transform: translate(0, 5px) scaleY(1.1);
  }
  50% {
    -webkit-transform: translate(0, -37px) scaleY(1.1);
    transform: translate(0, -37px) scaleY(1.1);
  }
  90% {
    -webkit-transform: translate(0, 5px) scaleY(1.1);
    transform: translate(0, 5px) scaleY(1.1);
  }
  100% {
    -webkit-transform: translate(0, 30px) scaleY(0.5);
    transform: translate(0, 30px) scaleY(0.5);
  }
}
@-webkit-keyframes ld-bounce-px {
  0%, 90% {
    animation-timing-function: linear;
  }
  10% {
    animation-timing-function: cubic-bezier(0, 0.4, 0.6, 1);
  }
  50% {
    animation-timing-function: cubic-bezier(0.4, 0, 1, 0.6);
  }
  0% {
    -webkit-transform: translate(0, 30px) scaleY(0.5);
    transform: translate(0, 30px) scaleY(0.5);
  }
  10% {
    -webkit-transform: translate(0, 5px) scaleY(1.1);
    transform: translate(0, 5px) scaleY(1.1);
  }
  50% {
    -webkit-transform: translate(0, -37px) scaleY(1.1);
    transform: translate(0, -37px) scaleY(1.1);
  }
  90% {
    -webkit-transform: translate(0, 5px) scaleY(1.1);
    transform: translate(0, 5px) scaleY(1.1);
  }
  100% {
    -webkit-transform: translate(0, 30px) scaleY(0.5);
    transform: translate(0, 30px) scaleY(0.5);
  }
}
.ld.ld-bounce-px {
  -webkit-animation: ld-bounce-px 1s infinite;
  animation: ld-bounce-px 1s infinite;
}
</style></svg></svg>